<?xml version="1.0" encoding="utf-8"?>
<svg viewBox="195.66 202.701 44.802 18.144" xmlns="http://www.w3.org/2000/svg">
  <g transform="matrix(0.134041, 0, 0, 0.213398, 185.570129, 173.726593)" style="">
    <g transform="matrix(0.546807, 0, 0, 0.577659, 244.997711, 179.702591)" id="305705" style="">
      <g style="">
        <g transform="matrix(1.6533 0 0 1.3046 -0.0063 0.0004)" id="506193" clip-path="url(#CLIPPATH_1)">
          <clipPath id="CLIPPATH_1">
            <path transform="matrix(1.333 0 0 1.34 0.0033 -0.0016) translate(-206.1133, -109.5977)" id="b02f1d834f" d="M 75.242188 75.847656 L 336.984375 75.847656 L 336.984375 143.347656 L 75.242188 143.347656 Z M 75.242188 75.847656" stroke-linecap="round"/>
          </clipPath>
          <path style="stroke: rgb(0,0,0); stroke-width: 6; stroke-dasharray: none; stroke-linecap: butt; stroke-dashoffset: 0; stroke-linejoin: miter; stroke-miterlimit: 4; is-custom-font: none; font-file-url: none; fill: none; fill-rule: nonzero; opacity: 1;" transform=" translate(-174.447, -45.2272)" d="M -0.000923844 0.000617132 L 348.894946 0.000617132 L 348.894946 90.453749 L -0.000923844 90.453749 L -0.000923844 0.000617132" stroke-linecap="round"/>
        </g>
        <g transform="matrix(2.2039 0 0 1.7482 -135.6807 -0.9189)" id="384359" clip-path="url(#CLIPPATH_2)">
          <clipPath id="CLIPPATH_2">
            <path transform="matrix(1 0 0 1 -0.3516 0.0937) translate(-144.1953, -109.166)" id="b58cb492a9" d="M 82.308594 82.621094 L 206.082031 82.621094 L 206.082031 135.710938 L 82.308594 135.710938 Z M 82.308594 82.621094" stroke-linecap="round"/>
          </clipPath>
          <path style="stroke: none; stroke-width: 1; stroke-dasharray: none; stroke-linecap: butt; stroke-dashoffset: 0; stroke-linejoin: miter; stroke-miterlimit: 4; is-custom-font: none; font-file-url: none; fill: rgb(0,0,0); fill-rule: nonzero; opacity: 1;" transform=" translate(-144.5469, -109.0723)" d="M 82.308594 82.621094 L 206.785156 82.621094 L 206.785156 135.523438 L 82.308594 135.523438 Z M 82.308594 82.621094" stroke-linecap="round"/>
        </g>
        <g transform="matrix(2.2039 0 0 1.7482 -227.572 -1.1835)" id="726159">
          <path style="stroke: none; stroke-width: 1; stroke-dasharray: none; stroke-linecap: butt; stroke-dashoffset: 0; stroke-linejoin: miter; stroke-miterlimit: 4; is-custom-font: none; font-file-url: none; fill: rgb(255,255,255); fill-rule: nonzero; opacity: 1;" transform=" translate(-8.3457, 8.0801)" d="M 2.355469 0 L 4.386719 0 L 4.386719 -5.792969 L 7.941406 -5.792969 L 11.890625 0 L 14.335938 0 L 10.273438 -6.003906 C 12.628906 -6.578125 14.082031 -8.355469 14.082031 -10.964844 C 14.082031 -14.175781 11.867188 -16.160156 8.519531 -16.160156 L 2.355469 -16.160156 Z M 4.386719 -7.734375 L 4.386719 -14.21875 L 8.289062 -14.21875 C 10.640625 -14.21875 12.003906 -13.019531 12.003906 -10.964844 C 12.003906 -8.910156 10.640625 -7.734375 8.289062 -7.734375 Z M 4.386719 -7.734375" stroke-linecap="round"/>
        </g>
        <g transform="matrix(2.2039 0 0 1.7482 -191.1879 -1.1835)" id="229652">
          <path style="stroke: none; stroke-width: 1; stroke-dasharray: none; stroke-linecap: butt; stroke-dashoffset: 0; stroke-linejoin: miter; stroke-miterlimit: 4; is-custom-font: none; font-file-url: none; fill: rgb(255,255,255); fill-rule: nonzero; opacity: 1;" transform=" translate(-7.3867, 8.0801)" d="M 2.355469 0 L 12.417969 0 L 12.417969 -1.894531 L 4.386719 -1.894531 L 4.386719 -7.292969 L 11.589844 -7.292969 L 11.589844 -9.164062 L 4.386719 -9.164062 L 4.386719 -14.265625 L 12.164062 -14.265625 L 12.164062 -16.160156 L 2.355469 -16.160156 Z M 2.355469 0" stroke-linecap="round"/>
        </g>
        <g transform="matrix(2.2039 0 0 1.7482 -153.6005 -1.1835)" id="57497">
          <path style="stroke: none; stroke-width: 1; stroke-dasharray: none; stroke-linecap: butt; stroke-dashoffset: 0; stroke-linejoin: miter; stroke-miterlimit: 4; is-custom-font: none; font-file-url: none; fill: rgb(255,255,255); fill-rule: nonzero; opacity: 1;" transform=" translate(-8.7734, 8.0801)" d="M 2.355469 0 L 4.363281 0 L 4.363281 -12.652344 L 13.296875 0 L 15.191406 0 L 15.191406 -16.160156 L 13.203125 -16.160156 L 13.203125 -3.507812 L 4.269531 -16.160156 L 2.355469 -16.160156 Z M 2.355469 0" stroke-linecap="round"/>
        </g>
        <g transform="matrix(2.2039 0 0 1.7482 -114.4215 -1.1835)" id="94814">
          <path style="stroke: none; stroke-width: 1; stroke-dasharray: none; stroke-linecap: butt; stroke-dashoffset: 0; stroke-linejoin: miter; stroke-miterlimit: 4; is-custom-font: none; font-file-url: none; fill: rgb(255,255,255); fill-rule: nonzero; opacity: 1;" transform=" translate(-7.2598, 8.0801)" d="M 6.257812 0 L 8.289062 0 L 8.289062 -14.21875 L 13.734375 -14.21875 L 13.734375 -16.160156 L 0.785156 -16.160156 L 0.785156 -14.21875 L 6.257812 -14.21875 Z M 6.257812 0" stroke-linecap="round"/>
        </g>
        <g transform="matrix(2.2039 0 0 1.7482 -76.916 -1.1835)" id="474913">
          <path style="stroke: none; stroke-width: 1; stroke-dasharray: none; stroke-linecap: butt; stroke-dashoffset: 0; stroke-linejoin: miter; stroke-miterlimit: 4; is-custom-font: none; font-file-url: none; fill: rgb(255,255,255); fill-rule: nonzero; opacity: 1;" transform=" translate(-7.9863, 8.0801)" d="M 0.390625 0 L 2.5625 0 L 4.039062 -3.671875 L 11.910156 -3.671875 L 13.433594 0 L 15.582031 0 L 8.933594 -16.160156 L 7.039062 -16.160156 Z M 4.824219 -5.5625 L 7.988281 -13.320312 L 11.148438 -5.5625 Z M 4.824219 -5.5625" stroke-linecap="round"/>
        </g>
        <g transform="matrix(2.2039 0 0 1.7482 -39.3828 -1.1835)" id="151357">
          <path style="stroke: none; stroke-width: 1; stroke-dasharray: none; stroke-linecap: butt; stroke-dashoffset: 0; stroke-linejoin: miter; stroke-miterlimit: 4; is-custom-font: none; font-file-url: none; fill: rgb(255,255,255); fill-rule: nonzero; opacity: 1;" transform=" translate(-7.2949, 8.0801)" d="M 2.355469 0 L 12.234375 0 L 12.234375 -1.9375 L 4.386719 -1.9375 L 4.386719 -16.160156 L 2.355469 -16.160156 Z M 2.355469 0" stroke-linecap="round"/>
        </g>
        <g transform="matrix(2.2039 0 0 1.7482 31.8724 -1.1835)" id="131240">
          <path style="stroke: none; stroke-width: 1; stroke-dasharray: none; stroke-linecap: butt; stroke-dashoffset: 0; stroke-linejoin: miter; stroke-miterlimit: 4; is-custom-font: none; font-file-url: none; fill: rgb(0,0,0); fill-rule: nonzero; opacity: 1;" transform=" translate(-10.9414, 8.0801)" d="M 1.707031 0 L 6.324219 0 L 6.324219 -8.195312 L 9.441406 -3.832031 L 12.464844 -3.832031 L 15.558594 -8.171875 L 15.558594 0 L 20.175781 0 L 20.175781 -16.160156 L 16.390625 -16.160156 L 10.941406 -8.472656 L 5.515625 -16.160156 L 1.707031 -16.160156 Z M 1.707031 0" stroke-linecap="round"/>
        </g>
        <g transform="matrix(2.2039 0 0 1.7482 75.1473 -1.1835)" id="229501">
          <path style="stroke: none; stroke-width: 1; stroke-dasharray: none; stroke-linecap: butt; stroke-dashoffset: 0; stroke-linejoin: miter; stroke-miterlimit: 4; is-custom-font: none; font-file-url: none; fill: rgb(0,0,0); fill-rule: nonzero; opacity: 1;" transform=" translate(-8.7031, 8.0801)" d="M 0.117188 0 L 5.054688 0 L 5.933594 -2.285156 L 11.449219 -2.285156 L 12.328125 0 L 17.289062 0 L 11.011719 -16.160156 L 6.394531 -16.160156 Z M 6.902344 -5.703125 L 8.703125 -10.710938 L 10.503906 -5.703125 Z M 6.902344 -5.703125" stroke-linecap="round"/>
        </g>
        <g transform="matrix(2.2039 0 0 1.7482 114.0967 -1.1835)" id="102416">
          <path style="stroke: none; stroke-width: 1; stroke-dasharray: none; stroke-linecap: butt; stroke-dashoffset: 0; stroke-linejoin: miter; stroke-miterlimit: 4; is-custom-font: none; font-file-url: none; fill: rgb(0,0,0); fill-rule: nonzero; opacity: 1;" transform=" translate(-8.9785, 8.0801)" d="M 1.707031 0 L 6.324219 0 L 6.324219 -8.242188 L 12.464844 0 L 16.25 0 L 16.25 -16.160156 L 11.65625 -16.160156 L 11.65625 -7.964844 L 5.515625 -16.160156 L 1.707031 -16.160156 Z M 1.707031 0" stroke-linecap="round"/>
        </g>
        <g transform="matrix(2.2039 0 0 1.7482 153.1037 -1.1835)" id="363806">
          <path style="stroke: none; stroke-width: 1; stroke-dasharray: none; stroke-linecap: butt; stroke-dashoffset: 0; stroke-linejoin: miter; stroke-miterlimit: 4; is-custom-font: none; font-file-url: none; fill: rgb(0,0,0); fill-rule: nonzero; opacity: 1;" transform=" translate(-8.7031, 8.0801)" d="M 0.117188 0 L 5.054688 0 L 5.933594 -2.285156 L 11.449219 -2.285156 L 12.328125 0 L 17.289062 0 L 11.011719 -16.160156 L 6.394531 -16.160156 Z M 6.902344 -5.703125 L 8.703125 -10.710938 L 10.503906 -5.703125 Z M 6.902344 -5.703125" stroke-linecap="round"/>
        </g>
        <g transform="matrix(2.2039 0 0 1.7482 192.9765 -1.18)" id="544006">
          <path style="stroke: none; stroke-width: 1; stroke-dasharray: none; stroke-linecap: butt; stroke-dashoffset: 0; stroke-linejoin: miter; stroke-miterlimit: 4; is-custom-font: none; font-file-url: none; fill: rgb(0,0,0); fill-rule: nonzero; opacity: 1;" transform=" translate(-9.3975, 8.0781)" d="M 9.417969 0.347656 C 14.980469 0.347656 18.46875 -3.695312 17.960938 -9.371094 L 8.609375 -9.371094 L 8.609375 -6.09375 L 13.066406 -6.09375 C 12.605469 -4.734375 11.3125 -3.808594 9.464844 -3.808594 C 6.878906 -3.808594 5.378906 -5.632812 5.378906 -8.078125 C 5.378906 -10.617188 7.019531 -12.351562 9.417969 -12.351562 C 10.851562 -12.351562 12.074219 -11.726562 12.695312 -10.710938 L 17.660156 -10.710938 C 16.714844 -14.242188 13.433594 -16.503906 9.347656 -16.503906 C 4.269531 -16.503906 0.785156 -13.042969 0.785156 -8.078125 C 0.785156 -3.09375 4.292969 0.347656 9.417969 0.347656 Z M 9.417969 0.347656" stroke-linecap="round"/>
        </g>
        <g transform="matrix(2.2039 0 0 1.7482 229.811 -1.1835)" id="952416">
          <path style="stroke: none; stroke-width: 1; stroke-dasharray: none; stroke-linecap: butt; stroke-dashoffset: 0; stroke-linejoin: miter; stroke-miterlimit: 4; is-custom-font: none; font-file-url: none; fill: rgb(0,0,0); fill-rule: nonzero; opacity: 1;" transform=" translate(-7.375, 8.0801)" d="M 1.707031 0 L 13.042969 0 L 13.042969 -3.808594 L 6.324219 -3.808594 L 6.324219 -6.300781 L 12.164062 -6.300781 L 12.164062 -10.042969 L 6.324219 -10.042969 L 6.324219 -12.398438 L 12.789062 -12.398438 L 12.789062 -16.160156 L 1.707031 -16.160156 Z M 1.707031 0" stroke-linecap="round"/>
        </g>
        <g transform="matrix(2.2039 0 0 1.7482 263.7837 -1.1835)" id="934367">
          <path style="stroke: none; stroke-width: 1; stroke-dasharray: none; stroke-linecap: butt; stroke-dashoffset: 0; stroke-linejoin: miter; stroke-miterlimit: 4; is-custom-font: none; font-file-url: none; fill: rgb(0,0,0); fill-rule: nonzero; opacity: 1;" transform=" translate(-8.7148, 8.0801)" d="M 1.707031 0 L 6.371094 0 L 6.371094 -4.59375 L 8.125 -4.59375 L 10.433594 0 L 15.722656 0 L 12.742188 -5.449219 C 14.453125 -6.394531 15.421875 -8.101562 15.421875 -10.363281 C 15.421875 -13.941406 12.996094 -16.160156 9.074219 -16.160156 L 1.707031 -16.160156 Z M 6.277344 -8.3125 L 6.277344 -12.351562 L 8.449219 -12.351562 C 9.925781 -12.351562 10.734375 -11.636719 10.734375 -10.34375 C 10.734375 -9.050781 9.925781 -8.3125 8.449219 -8.3125 Z M 6.277344 -8.3125" stroke-linecap="round"/>
        </g>
      </g>
    </g>
  </g>
</svg>